<svg width="40" height="40" viewBox="0 0 40 40" fill="none" xmlns="http://www.w3.org/2000/svg">
<path fill-rule="evenodd" clip-rule="evenodd" d="M20.4067 1.81836C10.3733 1.81836 2.22668 9.96502 2.22668 20C2.22668 30.035 10.3733 38.1817 20.4067 38.1817C30.4417 38.1817 38.5884 30.035 38.5884 20C38.5884 9.96502 30.4417 1.81836 20.4067 1.81836ZM20.4067 4.81836C28.785 4.81836 35.5883 11.6217 35.5883 20C35.5883 28.3784 28.785 35.1817 20.4067 35.1817C12.0283 35.1817 5.22666 28.3784 5.22666 20C5.22666 11.6217 12.0283 4.81836 20.4067 4.81836ZM19.1133 22.9667C19.4033 23.1717 19.7533 23.2817 20.4067 23.2817C23.615 23.2817 26.22 20.6767 26.22 17.4684C26.22 14.26 23.615 11.655 20.4067 11.655C17.1983 11.655 14.5934 14.26 14.5934 17.4684C14.5934 18.3567 14.9283 19.2683 15.4583 19.93C15.9767 20.5767 15.8717 21.5217 15.2267 22.0384C14.58 22.5567 13.635 22.4517 13.1184 21.8067C12.1817 20.64 11.5933 19.0334 11.5933 17.4684C11.5933 12.605 15.5433 8.65501 20.4067 8.65501C25.2717 8.65501 29.22 12.605 29.22 17.4684C29.22 22.3334 25.2717 26.2817 20.4067 26.2817C19.5817 26.2817 18.975 26.2034 18.4867 26.0517L17.6567 30.1434C17.4917 30.955 16.7 31.48 15.8883 31.315C15.0767 31.15 14.5517 30.3583 14.7167 29.5467L17.475 15.955C17.64 15.1434 18.4317 14.6183 19.2433 14.7833C20.055 14.9483 20.58 15.74 20.415 16.5517L19.1133 22.9667Z" fill="#2C2C2C"/>
</svg>
