<svg width="40" height="41" viewBox="0 0 40 41" fill="none" xmlns="http://www.w3.org/2000/svg">
<path d="M39.9908 14.7417C40.0806 11.1029 39.5119 7.49123 38.3373 4.24216C37.5403 2.90899 36.4343 2.00931 35.212 1.69989C30.1561 1.05803 25.0793 0.79495 20.0034 0.911782C14.946 0.789647 9.88744 1.04423 4.84933 1.67446C3.85327 1.92797 2.93148 2.58165 2.19646 3.55575C0.561129 5.66583 0.379426 9.27586 0.197722 12.3266C-0.0659074 17.8117 -0.0659074 23.3154 0.197722 28.8005C0.250289 30.5176 0.433017 32.222 0.742833 33.8851C0.961922 35.1691 1.40518 36.357 2.03293 37.3425C2.77295 38.3682 3.7162 39.0591 4.74031 39.3255C8.65768 40.0021 12.6048 40.2824 16.551 40.1645C22.9107 40.2916 28.489 40.1645 35.0848 39.4526C36.134 39.2026 37.1039 38.5108 37.8649 37.4697C38.3736 36.7576 38.7535 35.8861 38.9732 34.9274C39.6231 32.1375 39.9422 29.2177 39.9181 26.2837C39.9908 24.86 39.9908 16.2671 39.9908 14.7417ZM15.8969 27.809V12.0724L26.6538 19.9788C23.6375 22.3177 19.6582 24.9617 15.8969 27.809Z" fill="black"/>
</svg>
