<svg width="40" height="40" viewBox="0 0 40 40" fill="none" xmlns="http://www.w3.org/2000/svg">
<g clip-path="url(#clip0_21_95)">
<path d="M32.5 0H7.5C5.51155 0.00220571 3.60518 0.79309 2.19914 2.19914C0.79309 3.60518 0.00220571 5.51155 0 7.5L0 32.5C0.00220571 34.4884 0.79309 36.3948 2.19914 37.8009C3.60518 39.2069 5.51155 39.9978 7.5 40H32.5C34.4884 39.9978 36.3948 39.2069 37.8009 37.8009C39.2069 36.3948 39.9978 34.4884 40 32.5V7.5C39.9978 5.51155 39.2069 3.60518 37.8009 2.19914C36.3948 0.79309 34.4884 0.00220571 32.5 0V0ZM38.3333 32.5C38.3316 34.0466 37.7164 35.5293 36.6228 36.6228C35.5293 37.7164 34.0466 38.3316 32.5 38.3333H7.5C5.95345 38.3316 4.47074 37.7164 3.37716 36.6228C2.28358 35.5293 1.66843 34.0466 1.66667 32.5V7.5C1.66843 5.95345 2.28358 4.47074 3.37716 3.37716C4.47074 2.28358 5.95345 1.66843 7.5 1.66667H32.5C34.0466 1.66843 35.5293 2.28358 36.6228 3.37716C37.7164 4.47074 38.3316 5.95345 38.3333 7.5V32.5Z" fill="black"/>
<path d="M20 11.6667C18.0222 11.6667 16.0888 12.2532 14.4443 13.3521C12.7998 14.4509 11.5181 16.0127 10.7612 17.8399C10.0043 19.6672 9.8063 21.6778 10.1922 23.6177C10.578 25.5575 11.5304 27.3393 12.9289 28.7378C14.3275 30.1363 16.1093 31.0887 18.0491 31.4746C19.9889 31.8605 21.9996 31.6624 23.8268 30.9055C25.6541 30.1487 27.2159 28.8669 28.3147 27.2225C29.4135 25.578 30 23.6446 30 21.6667C29.9971 19.0155 28.9426 16.4736 27.0679 14.5988C25.1932 12.7241 22.6513 11.6696 20 11.6667ZM20 30.0001C18.3518 30.0001 16.7407 29.5113 15.3703 28.5957C13.9998 27.68 12.9317 26.3785 12.301 24.8558C11.6703 23.3331 11.5053 21.6575 11.8268 20.041C12.1483 18.4245 12.942 16.9396 14.1074 15.7742C15.2729 14.6088 16.7577 13.8151 18.3743 13.4935C19.9908 13.172 21.6663 13.337 23.189 13.9678C24.7118 14.5985 26.0132 15.6666 26.9289 17.037C27.8446 18.4074 28.3333 20.0186 28.3333 21.6667C28.3309 23.8761 27.4522 25.9943 25.8899 27.5566C24.3276 29.1189 22.2094 29.9977 20 30.0001Z" fill="black"/>
<path d="M20 15.0001C18.6814 15.0001 17.3925 15.3911 16.2962 16.1236C15.1999 16.8562 14.3454 17.8974 13.8408 19.1155C13.3362 20.3337 13.2042 21.6741 13.4614 22.9674C13.7186 24.2606 14.3536 25.4484 15.2859 26.3808C16.2183 27.3131 17.4062 27.9481 18.6994 28.2053C19.9926 28.4626 21.333 28.3305 22.5512 27.8259C23.7694 27.3214 24.8106 26.4669 25.5431 25.3705C26.2757 24.2742 26.6666 22.9853 26.6666 21.6667C26.6647 19.8992 25.9616 18.2047 24.7118 16.9549C23.462 15.7051 21.7675 15.0021 20 15.0001ZM20 26.6667C19.0111 26.6667 18.0444 26.3735 17.2221 25.8241C16.3999 25.2747 15.759 24.4938 15.3806 23.5802C15.0021 22.6665 14.9031 21.6612 15.0961 20.6913C15.289 19.7214 15.7652 18.8305 16.4644 18.1312C17.1637 17.432 18.0546 16.9557 19.0245 16.7628C19.9944 16.5699 20.9998 16.6689 21.9134 17.0473C22.827 17.4258 23.6079 18.0667 24.1573 18.8889C24.7067 19.7111 25 20.6778 25 21.6667C24.9984 22.9924 24.4712 24.2632 23.5338 25.2006C22.5965 26.1379 21.3256 26.6652 20 26.6667ZM29.1666 4.16675C28.6722 4.16675 28.1888 4.31337 27.7777 4.58807C27.3666 4.86278 27.0462 5.25322 26.857 5.71004C26.6677 6.16685 26.6182 6.66952 26.7147 7.15447C26.8111 7.63943 27.0493 8.08488 27.3989 8.43451C27.7485 8.78415 28.194 9.02225 28.6789 9.11871C29.1639 9.21517 29.6665 9.16567 30.1234 8.97645C30.5802 8.78723 30.9706 8.4668 31.2453 8.05567C31.52 7.64455 31.6666 7.1612 31.6666 6.66675C31.6666 6.00371 31.4033 5.36782 30.9344 4.89898C30.4656 4.43014 29.8297 4.16675 29.1666 4.16675ZM29.1666 7.50008C29.0018 7.50008 28.8407 7.45121 28.7037 7.35964C28.5666 7.26807 28.4598 7.13792 28.3968 6.98565C28.3337 6.83338 28.3172 6.66582 28.3493 6.50417C28.3815 6.34252 28.4608 6.19404 28.5774 6.07749C28.6939 5.96095 28.8424 5.88158 29.0041 5.84943C29.1657 5.81727 29.3333 5.83378 29.4856 5.89685C29.6378 5.95992 29.768 6.06673 29.8595 6.20377C29.9511 6.34081 30 6.50193 30 6.66675C30 6.88776 29.9122 7.09972 29.7559 7.256C29.5996 7.41228 29.3877 7.50008 29.1666 7.50008Z" fill="black"/>
</g>
<defs>
<clipPath id="clip0_21_95">
<rect width="40" height="40" fill="white"/>
</clipPath>
</defs>
</svg>
