<svg width="40" height="40" viewBox="0 0 40 40" fill="none" xmlns="http://www.w3.org/2000/svg">
<path d="M40 5.02351C38.4967 5.81116 36.9069 6.33185 35.28 6.56938C36.9963 5.33104 38.2825 3.38292 38.9 1.08639C37.2871 2.24594 35.5215 3.06292 33.68 3.5018C32.4491 1.88969 30.8099 0.816583 29.0196 0.450781C27.2293 0.0849796 25.3891 0.447175 23.7876 1.48056C22.1861 2.51395 20.9139 4.16008 20.1705 6.16078C19.4271 8.16147 19.2546 10.4036 19.68 12.5354C16.4189 12.3362 13.2289 11.3107 10.3173 9.5255C7.40574 7.74029 4.83769 5.23533 2.78 2.17333C2.05828 3.69544 1.67904 5.41921 1.68 7.17323C1.67744 8.80214 2.00843 10.4065 2.64351 11.8436C3.27859 13.2806 4.19804 14.5057 5.32 15.4098C4.01595 15.3669 2.73977 14.9443 1.6 14.1779V14.2987C1.60977 16.581 2.27199 18.7892 3.47463 20.5497C4.67727 22.3102 6.34651 23.515 8.2 23.9603C7.48651 24.2226 6.74575 24.3608 6 24.371C5.48378 24.3637 4.96884 24.3071 4.46 24.2019C4.98782 26.1651 6.00925 27.8809 7.38215 29.1104C8.75505 30.3398 10.4112 31.0219 12.12 31.0616C9.23441 33.8038 5.67177 35.3003 2 35.3128C1.33147 35.3154 0.663471 35.267 0 35.1678C3.74886 38.0911 8.11763 39.6429 12.58 39.6363C15.6594 39.675 18.7143 38.9722 21.5662 37.5689C24.4182 36.1657 27.01 34.0903 29.1904 31.4638C31.3708 28.8373 33.0959 25.7124 34.2651 22.2717C35.4343 18.831 36.0241 15.1434 36 11.4243C36 11.0137 36 10.579 36 10.1442C37.5694 8.73071 38.923 6.99793 40 5.02351Z" fill="black"/>
</svg>
